<?xml version="1.0" encoding="UTF-8"?>
<svg width="26" height="26" xmlns="http://www.w3.org/2000/svg" xmlns:xlink="http://www.w3.org/1999/xlink" viewBox="0 0 26 26" version="1.1" fill="#c2185b"><g id="surface1" fill="#c2185b"><path style=" " d="M 7 0 C 6.398438 0 6 0.398438 6 1 L 6 4 C 6 4.601563 6.398438 5 7 5 C 7.601563 5 8 4.601563 8 4 L 8 1 C 8 0.398438 7.601563 0 7 0 Z M 19 0 C 18.398438 0 18 0.398438 18 1 L 18 4 C 18 4.601563 18.398438 5 19 5 C 19.601563 5 20 4.601563 20 4 L 20 1 C 20 0.398438 19.601563 0 19 0 Z M 3 2 C 1.300781 2 0 3.300781 0 5 L 0 23 C 0 24.699219 1.300781 26 3 26 L 23 26 C 24.699219 26 26 24.699219 26 23 L 26 5 C 26 3.300781 24.699219 2 23 2 L 21 2 L 21 4 C 21 5.101563 20.101563 6 19 6 C 17.898438 6 17 5.101563 17 4 L 17 2 L 9 2 L 9 4 C 9 5.101563 8.101563 6 7 6 C 5.898438 6 5 5.101563 5 4 L 5 2 Z M 2 9 L 24 9 L 24 23 C 24 23.601563 23.601563 24 23 24 L 3 24 C 2.398438 24 2 23.601563 2 23 Z M 17.15625 11.09375 C 16.914063 11.050781 16.667969 11.179688 16.59375 11.40625 L 11.6875 18.6875 L 9.40625 16.40625 C 9.207031 16.207031 8.800781 16.207031 8.5 16.40625 L 7.59375 17.3125 C 7.394531 17.511719 7.394531 17.886719 7.59375 18.1875 L 11.09375 21.6875 C 11.292969 21.886719 11.605469 22 11.90625 22 C 12.207031 22 12.492188 21.792969 12.59375 21.59375 L 18.5 12.90625 C 18.699219 12.507813 18.605469 12.105469 18.40625 11.90625 L 17.40625 11.1875 C 17.332031 11.136719 17.238281 11.109375 17.15625 11.09375 Z " fill="#c2185b"/></g></svg>
